# xmcd
#
# Track frame offsets: 
#        150
#        10299
#        18456
#        26337
#        36916
#        48046
#        57323
#        67383
#        78301
#        86880
#        95468
#        106083
#        115048
#        125537
#        137446
#        149261
#        160404
#        169284
#        177772
#        187270
#
# Disc length: 2649 seconds
#
# Revision: 4
# Processed by: cddbd v1.5.2PL0 Copyright (c) Steve Scherf et al.
# Submitted via: ExactAudioCopyFreeDBPlugin 1.0
#
DISCID=110a5714
DTITLE=Various Artist - Rhythm and Blues:  Original Masters [Membran Mu
DTITLE=sic Documents]
DYEAR=2005
DGENRE=Rhythm and Blues
TTITLE0=Royals - All Night Long
TTITLE1=George Jenkins - Shuffin' Boogie
TTITLE2=The Kid - Booted
TTITLE3=Joe McCoy - Hey Loretta
TTITLE4=Frank Linkenberg - Ball of Fire
TTITLE5=Jesse Allen - Love Me Baby
TTITLE6=Artie Wilson - Tarzan
TTITLE7=Bill Heyman - I Want My Baby
TTITLE8=Joe McCoy - Too Much Going On
TTITLE9=Larry Hanna - Good Lovin'
TTITLE10=Blache Thomas - You Ain't So Such a Much
TTITLE11=Niteriders - Looking for My Baby
TTITLE12=John Greer - Honey Why
TTITLE13=Willie Mitchell - Lizzie Lou
TTITLE14=Paul Kimble - That Big Fat Mama
TTITLE15=Famouse Renegades - Invasion
TTITLE16=Miss Baker - You'd Better Find
TTITLE17=Arabians - Dog Wild
TTITLE18=Billy Garner - Little Schoolgirl
TTITLE19=Good Guys - Whoa Whoa
EXTD=YEAR: 2005
EXTT0=
EXTT1=
EXTT2=
EXTT3=
EXTT4=
EXTT5=
EXTT6=
EXTT7=
EXTT8=
EXTT9=
EXTT10=
EXTT11=
EXTT12=
EXTT13=
EXTT14=
EXTT15=
EXTT16=
EXTT17=
EXTT18=
EXTT19=
PLAYORDER=
